<?xml version="1.0" encoding="utf-8"?>
<!-- Generator: Adobe Illustrator 18.0.0, SVG Export Plug-In . SVG Version: 6.00 Build 0)  -->
<!DOCTYPE svg PUBLIC "-//W3C//DTD SVG 1.1//EN" "http://www.w3.org/Graphics/SVG/1.1/DTD/svg11.dtd">
<svg version="1.1" id="图层_1" xmlns="http://www.w3.org/2000/svg" xmlns:xlink="http://www.w3.org/1999/xlink" x="0px" y="0px"
	 viewBox="0 0 256.1 200" enable-background="new 0 0 256.1 200" xml:space="preserve">
<path fill="#FFFFFF" d="M0,16C0,7.2,7.2,0,16,0H24c8.9,0,16,7.2,16,16V24c0,8.9-7.2,16-16,16H16C7.2,40,0,32.8,0,24V16z M64,20
	c0-6.6,5.3-12,12-12h168c6.6,0,12,5.3,12,12c0,6.6-5.3,12-12,12H76C69.4,32,64,26.7,64,20z M0,96c0-8.9,7.2-16,16-16H24
	c8.9,0,16,7.2,16,16v7.9c0,8.9-7.2,16-16,16H16c-8.9,0-16-7.2-16-16V96z M64,100c0-6.6,5.3-12,12-12h168c6.6,0,12,5.3,12,12
	c0,6.6-5.3,12-12,12H76C69.4,112,64,106.7,64,100z M0,176c0-8.9,7.2-16,16-16H24c8.9,0,16,7.2,16,16v7.9c0,8.9-7.2,16-16,16H16
	c-8.9,0-16-7.2-16-16V176z M64,180c0-6.6,5.3-12,12-12h168c6.6,0,12,5.3,12,12c0,6.6-5.3,12-12,12H76C69.4,192,64,186.7,64,180z"/>
</svg>
